<?xml version="1.0" encoding="utf-8"?>
<!-- Generator: Adobe Illustrator 23.0.1, SVG Export Plug-In . SVG Version: 6.00 Build 0)  -->
<svg version="1.1" id="Warstwa_1" xmlns="http://www.w3.org/2000/svg" xmlns:xlink="http://www.w3.org/1999/xlink" x="0px" y="0px"
	 viewBox="0 0 305 605" style="enable-background:new 0 0 305 605;" xml:space="preserve">
<style type="text/css">
	.st0{fill:none;stroke:#453E3E;stroke-width:10;stroke-miterlimit:10;}
	.st1{fill:none;stroke:#000000;stroke-width:10;stroke-miterlimit:10;}
	.st2{stroke:#000000;stroke-width:10;stroke-miterlimit:10;}
</style>
<g>
	<path class="st0" d="M260.5,587.5"/>
	<path class="st0" d="M2.5,502.5"/>
	<polyline class="st0" points="302.5,602.5 302.5,502.5 2.5,502.5 2.5,602.5 261.3,602.5 290.1,602.5 302.5,602.5 	"/>
	<path class="st0" d="M302.5,502.5"/>
	<path class="st0" d="M2.5,602.5"/>
	<polyline class="st0" points="2.5,502.5 2.5,252.8 2.5,2.5 302.5,3 302.5,503 302.5,252.8 152.5,252.5 149.8,502.5 	"/>
	<line class="st0" x1="152.5" y1="252.5" x2="302.5" y2="503.5"/>
	<line class="st0" x1="149.5" y1="502.5" x2="302.5" y2="252.5"/>
	<line class="st0" x1="152.5" y1="252.5" x2="2.5" y2="252.5"/>
	<line class="st0" x1="149.5" y1="502.5" x2="2.5" y2="252.5"/>
	<line class="st0" x1="2.5" y1="502.5" x2="152.5" y2="252.5"/>
	<circle class="st1" cx="77" cy="553" r="38.5"/>
	<circle class="st1" cx="77.5" cy="552.5" r="20"/>
	<circle class="st1" cx="228" cy="553" r="38.5"/>
	<circle class="st1" cx="228.5" cy="552.5" r="20"/>
	<circle class="st1" cx="152.5" cy="129.5" r="97"/>
	<circle class="st1" cx="152.5" cy="129.5" r="59"/>
	<circle class="st1" cx="77" cy="553" r="4.5"/>
	<circle class="st1" cx="229" cy="553" r="4.5"/>
</g>
<circle class="st2" cx="152.5" cy="129.5" r="4.5"/>
</svg>
