<?xml version="1.0" encoding="utf-8"?>
<!-- Generator: Adobe Illustrator 23.0.1, SVG Export Plug-In . SVG Version: 6.00 Build 0)  -->
<svg version="1.1" id="Warstwa_1" xmlns="http://www.w3.org/2000/svg" xmlns:xlink="http://www.w3.org/1999/xlink" x="0px" y="0px"
	 viewBox="0 0 1920 1080" style="enable-background:new 0 0 1920 1080;" xml:space="preserve">
<path d="M1872.8,116.7c25.8,0,46.9-11.8,46.9-26.4V26.4c0-14.6-20.9-26.4-46.9-26.4H47.8C22,0,0.9,11.8,0.9,26.4v63.8
	c0,14.6,20.9,26.4,46.9,26.4h42.8v468H66.1C29.5,584.7,0,601.4,0,622.1v442c0,8.7,12.6,15.9,28.2,15.9h1863.6
	c15.6,0,28.2-7.2,28.2-15.9v-442c0-20.5-29.8-37.4-66.1-37.4h-24.5v-468H1872.8z M512.7,763.5V622.1c0-20.5-29.8-37.4-66.1-37.4
	h-24.5v-468h1075.6v468h-24.5c-36.6,0-66.1,16.7-66.1,37.4v141.4 M147,259.2l64.4,29l-64.4,29V259.2z M147,384.5l64.4,29l-64.4,29
	V384.5z M162,350.7l94.3-42.5l94.3,42.5l-94.3,42.5L162,350.7z M365.9,317.1l-64.4-29l64.4-29V317.1z M365.9,384.5v57.9l-64.4-29
	L365.9,384.5z M350.7,225.3l-94.3,42.5L162,225.3l94.3-42.5L350.7,225.3z M301.5,162.8l64.4-29v57.9L301.5,162.8z M256.3,433.8
	l94.3,42.5l-94.3,42.5L162,476.3L256.3,433.8z M365.9,509.9v57.9l-64.4-29L365.9,509.9z M256.3,142.5l-57.1-25.8h114.4L256.3,142.5z
	 M211.2,162.8l-64.4,29v-57.9L211.2,162.8z M211.2,538.8l-64.4,29v-57.9L211.2,538.8z M256.3,559.1l57.1,25.8H199L256.3,559.1z
	 M1772.8,442.4l-64.4-29l64.4-29V442.4z M1772.8,317.1l-64.4-29l64.4-29V317.1z M1757.8,350.7l-94.3,42.5l-94.3-42.5l94.3-42.5
	L1757.8,350.7z M1553.9,384.5l64.4,29l-64.4,29V384.5z M1553.9,317.1v-57.9l64.4,29L1553.9,317.1z M1569.1,476.1l94.3-42.5
	l94.3,42.5l-94.3,42.5L1569.1,476.1z M1618.3,538.8l-64.4,29v-57.9L1618.3,538.8z M1663.4,267.8l-94.3-42.5l94.3-42.5l94.3,42.5
	L1663.4,267.8z M1553.9,191.7v-57.9l64.4,29L1553.9,191.7z M1606.1,116.7h114.4l-57.1,25.8L1606.1,116.7z M1663.4,559.1l57.1,25.8
	h-114.4L1663.4,559.1z M1708.6,538.8l64.4-29v57.9L1708.6,538.8z M1708.6,162.8l64.4-29v57.9L1708.6,162.8z M57.3,31.7h1806V85
	h-62.2H394.1H57.3V31.7z M56.2,622.1c0-3.2,4.4-5.7,9.9-5.7h52.5l0,0l0,0h275.1l0,0l0,0h52.5c5.5,0,9.9,2.5,9.9,5.7v426.2H55.8
	L56.2,622.1z M512.7,875.6h894.2v172.5H512.7C512.7,1048.1,512.7,875.6,512.7,875.6z M1863.6,622.1v426.2h-400.3V622.1
	c0-3.2,4.4-5.7,9.9-5.7h52.5l0,0h275.1l0,0h52.9C1858.9,616.6,1863.6,619.2,1863.6,622.1z"/>
</svg>
